<svg xmlns="http://www.w3.org/2000/svg" width="204.693" height="45" viewBox="0 0 204.693 45">
  <g id="logo-full" transform="translate(-2643.999 -428)">
    <g id="logo" transform="translate(2562.25 -11.834)">
      <g id="Group_214" data-name="Group 214" transform="translate(81.749 439.834)">
        <path id="Path_1885" data-name="Path 1885" d="M45,15.5A4.5,4.5,0,0,0,40.5,11H4.5A4.5,4.5,0,0,0,0,15.5v36A4.5,4.5,0,0,0,4.5,56h36A4.5,4.5,0,0,0,45,51.5Z" transform="translate(0 -11.001)" fill="#263041" fill-rule="evenodd"/>
      </g>
      <g id="Group_216" data-name="Group 216" transform="translate(90.029 448.114)">
        <circle id="Ellipse_62" data-name="Ellipse 62" cx="14.22" cy="14.22" r="14.22" fill="#fff"/>
      </g>
      <g id="Group_287" data-name="Group 287" transform="translate(86.159 461.704)">
        <path id="Path_1890" data-name="Path 1890" d="M318.683,467.645a.781.781,0,0,0-.749-.81H283.252a.813.813,0,0,0,0,1.62h34.682A.781.781,0,0,0,318.683,467.645Z" transform="translate(-282.503 -457.925)" fill="#263041" fill-rule="evenodd"/>
        <path id="Path_1958" data-name="Path 1958" d="M318.683,467.645a.781.781,0,0,0-.749-.81H283.252a.813.813,0,0,0,0,1.62h34.682A.781.781,0,0,0,318.683,467.645Z" transform="translate(-282.503 -460.895)" fill="#263041" fill-rule="evenodd"/>
        <path id="Path_1959" data-name="Path 1959" d="M318.683,467.645a.781.781,0,0,0-.749-.81H283.252a.813.813,0,0,0,0,1.62h34.682A.781.781,0,0,0,318.683,467.645Z" transform="translate(-282.503 -463.865)" fill="#263041" fill-rule="evenodd"/>
        <path id="Path_1960" data-name="Path 1960" d="M318.683,467.645a.781.781,0,0,0-.749-.81H283.252a.812.812,0,0,0,0,1.62h34.682A.781.781,0,0,0,318.683,467.645Z" transform="translate(-282.503 -466.835)" fill="#263041" fill-rule="evenodd"/>
        <path id="Path_1961" data-name="Path 1961" d="M318.683,467.645a.781.781,0,0,0-.749-.81H283.252a.813.813,0,0,0,0,1.62h34.682A.781.781,0,0,0,318.683,467.645Z" transform="translate(-282.503 -454.955)" fill="#263041" fill-rule="evenodd"/>
      </g>
    </g>
    <path id="Path_1963" data-name="Path 1963" d="M1.483-.833V-5.676A9.307,9.307,0,0,0,4.344-4.019a9.2,9.2,0,0,0,3.118.552,6.915,6.915,0,0,0,1.612-.167,3.776,3.776,0,0,0,1.15-.462,2.013,2.013,0,0,0,.689-.7,1.737,1.737,0,0,0,.227-.87A1.882,1.882,0,0,0,10.777-6.8a3.909,3.909,0,0,0-.991-.923,10.36,10.36,0,0,0-1.491-.817q-.863-.394-1.862-.8a9.5,9.5,0,0,1-3.792-2.588,5.651,5.651,0,0,1-1.249-3.693,5.882,5.882,0,0,1,.681-2.914,5.785,5.785,0,0,1,1.854-2.006A8.314,8.314,0,0,1,6.645-21.7a13.961,13.961,0,0,1,3.27-.371,19.665,19.665,0,0,1,3,.2,11.816,11.816,0,0,1,2.414.628v4.526a7.3,7.3,0,0,0-1.188-.666,9.414,9.414,0,0,0-1.324-.477,10.1,10.1,0,0,0-1.355-.28,9.588,9.588,0,0,0-1.279-.091,6.67,6.67,0,0,0-1.514.159,3.883,3.883,0,0,0-1.15.447,2.222,2.222,0,0,0-.727.689,1.632,1.632,0,0,0-.257.9,1.72,1.72,0,0,0,.288.976,3.3,3.3,0,0,0,.817.817,8.674,8.674,0,0,0,1.287.757q.757.371,1.71.764a19.06,19.06,0,0,1,2.339,1.158,8.314,8.314,0,0,1,1.779,1.385,5.4,5.4,0,0,1,1.135,1.763A6.231,6.231,0,0,1,16.287-6.1,6.183,6.183,0,0,1,15.6-3.05a5.591,5.591,0,0,1-1.869,2,8.106,8.106,0,0,1-2.747,1.1A15.877,15.877,0,0,1,7.674.378a18.391,18.391,0,0,1-3.4-.3A10.258,10.258,0,0,1,1.483-.833ZM31.136-.56a9.458,9.458,0,0,1-4.677.938,7.91,7.91,0,0,1-5.782-2.165,7.476,7.476,0,0,1-2.21-5.585A8.235,8.235,0,0,1,20.836-13.6a8.755,8.755,0,0,1,6.335-2.278,8.128,8.128,0,0,1,3.966.727V-11.1a5.453,5.453,0,0,0-3.345-1.12,4.408,4.408,0,0,0-3.262,1.2,4.49,4.49,0,0,0-1.2,3.323,4.417,4.417,0,0,0,1.15,3.232A4.228,4.228,0,0,0,27.64-3.285a6.313,6.313,0,0,0,3.5-1.12ZM44.381-11.186a4.149,4.149,0,0,0-2.013-.469,2.9,2.9,0,0,0-2.437,1.143A4.986,4.986,0,0,0,39.053-7.4V0H34.27V-15.5h4.783v2.876h.061q1.135-3.148,4.087-3.148a3.08,3.08,0,0,1,1.181.182ZM59.5,0H54.977V-2.225h-.061A5.051,5.051,0,0,1,50.3.378,4.829,4.829,0,0,1,46.75-.9a4.583,4.583,0,0,1-1.294-3.413q0-4.511,5.343-5.207l4.208-.56q0-2.543-2.755-2.543a9.4,9.4,0,0,0-5.268,1.65v-3.6a11.851,11.851,0,0,1,2.732-.908,14.362,14.362,0,0,1,3.156-.394q6.63,0,6.63,6.615Zm-4.5-6.3V-7.341l-2.815.363q-2.331.3-2.331,2.1a1.739,1.739,0,0,0,.568,1.34,2.181,2.181,0,0,0,1.536.522,2.832,2.832,0,0,0,2.195-.931A3.362,3.362,0,0,0,55.007-6.3ZM68.13-1.8H68.07V7.129H63.287V-15.5H68.07v2.331h.061a5.623,5.623,0,0,1,4.98-2.709,5.6,5.6,0,0,1,4.655,2.066,8.8,8.8,0,0,1,1.642,5.623,9.536,9.536,0,0,1-1.915,6.221A6.243,6.243,0,0,1,72.4.378,4.826,4.826,0,0,1,68.13-1.8Zm-.136-6.357v1.241A3.946,3.946,0,0,0,68.842-4.3a2.759,2.759,0,0,0,2.225,1.014A2.933,2.933,0,0,0,73.6-4.549a6.1,6.1,0,0,0,.9-3.58q0-4.087-3.179-4.087a2.985,2.985,0,0,0-2.4,1.113A4.437,4.437,0,0,0,67.994-8.159ZM96.436-6.388H86.325q.242,3.375,4.253,3.375a8.3,8.3,0,0,0,4.5-1.211V-.772A11.81,11.81,0,0,1,89.488.378,7.863,7.863,0,0,1,83.661-1.7a7.863,7.863,0,0,1-2.074-5.8,8.3,8.3,0,0,1,2.24-6.115,7.463,7.463,0,0,1,5.51-2.255,6.774,6.774,0,0,1,5.245,2.013A7.753,7.753,0,0,1,96.436-8.4ZM92-9.324q0-3.33-2.694-3.33a2.572,2.572,0,0,0-1.99.954,4.328,4.328,0,0,0-1.022,2.376Zm17.392-1.862a4.149,4.149,0,0,0-2.013-.469,2.9,2.9,0,0,0-2.437,1.143,4.986,4.986,0,0,0-.878,3.111V0H99.282V-15.5h4.783v2.876h.061q1.135-3.148,4.087-3.148a3.08,3.08,0,0,1,1.181.182ZM111.27.378A2.79,2.79,0,0,1,109.3-.348a2.336,2.336,0,0,1-.787-1.786,2.249,2.249,0,0,1,.81-1.786,2.99,2.99,0,0,1,2.021-.7,2.878,2.878,0,0,1,2.006.7,2.293,2.293,0,0,1,.78,1.779,2.306,2.306,0,0,1-.795,1.809A3,3,0,0,1,111.27.378ZM137.093,0h-5.328l-1.544-4.829H122.5L120.973,0h-5.3l7.9-21.706h5.8ZM129.1-8.583l-2.331-7.3a9.508,9.508,0,0,1-.363-1.953h-.121a8.279,8.279,0,0,1-.378,1.892l-2.361,7.356ZM144.692,0H139.8V-21.706h4.889Z" transform="translate(2704 463)" fill="#fff"/>
  </g>
</svg>
